name ./resultDataOpenSim/trcMotMarkerGrf/sub06/grf-03-03.mot
datacolumns 19
datarows 15
range 0.49200000 0.54800000
endheader

                time	     ground_force_vx	     ground_force_vy	     ground_force_vz	     ground_force_px	     ground_force_py	     ground_force_pz	   l_ground_force_vx	   l_ground_force_vy	   l_ground_force_vz	   l_ground_force_px	   l_ground_force_py	   l_ground_force_pz	     ground_torque_x	     ground_torque_y	     ground_torque_z	   l_ground_torque_x	   l_ground_torque_y	   l_ground_torque_z	
          0.49200000	        102.04077993	        584.90224059	        -16.56150683	         -0.81391640	          0.00000000	          0.09702563	          0.00000000	          0.00000000	          0.00000000	          0.00000000	          0.00000000	          0.00000000	          0.00000000	          2.12934747	          0.00000000	          0.00000000	          0.00000000	          0.00000000	
          0.49600000	        109.01247808	        604.24111334	        -18.45108299	         -0.81363191	          0.00000000	          0.09690703	          0.00000000	          0.00000000	          0.00000000	          0.00000000	          0.00000000	          0.00000000	          0.00000000	          2.10424288	          0.00000000	          0.00000000	          0.00000000	          0.00000000	
          0.50000000	        116.18037337	        623.00293806	        -20.61390111	         -0.81331119	          0.00000000	          0.09683953	          0.00000000	          0.00000000	          0.00000000	          0.00000000	          0.00000000	          0.00000000	          0.00000000	          2.06428327	          0.00000000	          0.00000000	          0.00000000	          0.00000000	
          0.50400000	        123.50605864	        641.01031903	        -22.81422787	         -0.81296299	          0.00000000	          0.09680700	          0.00000000	          0.00000000	          0.00000000	          0.00000000	          0.00000000	          0.00000000	          0.00000000	          2.02153798	          0.00000000	          0.00000000	          0.00000000	          0.00000000	
          0.50800000	        130.95153145	        658.11252054	        -24.81177000	         -0.81260121	          0.00000000	          0.09678119	          0.00000000	          0.00000000	          0.00000000	          0.00000000	          0.00000000	          0.00000000	          0.00000000	          1.98840299	          0.00000000	          0.00000000	          0.00000000	          0.00000000	
          0.51200000	        138.49087312	        674.14462613	        -26.40275089	         -0.81222570	          0.00000000	          0.09674307	          0.00000000	          0.00000000	          0.00000000	          0.00000000	          0.00000000	          0.00000000	          0.00000000	          1.97422899	          0.00000000	          0.00000000	          0.00000000	          0.00000000	
          0.51600000	        146.11151497	        688.90571074	        -27.45586360	         -0.81183325	          0.00000000	          0.09668275	          0.00000000	          0.00000000	          0.00000000	          0.00000000	          0.00000000	          0.00000000	          0.00000000	          1.98280486	          0.00000000	          0.00000000	          0.00000000	          0.00000000	
          0.52000000	        153.80859489	        702.18081211	        -27.93299298	         -0.81142551	          0.00000000	          0.09659695	          0.00000000	          0.00000000	          0.00000000	          0.00000000	          0.00000000	          0.00000000	          0.00000000	          2.01128433	          0.00000000	          0.00000000	          0.00000000	          0.00000000	
          0.52400000	        161.57927262	        713.78133239	        -27.89043542	         -0.81100765	          0.00000000	          0.09649162	          0.00000000	          0.00000000	          0.00000000	          0.00000000	          0.00000000	          0.00000000	          0.00000000	          2.05063341	          0.00000000	          0.00000000	          0.00000000	          0.00000000	
          0.52800000	        169.41656374	        723.57392895	        -27.46269469	         -0.81059164	          0.00000000	          0.09637769	          0.00000000	          0.00000000	          0.00000000	          0.00000000	          0.00000000	          0.00000000	          0.00000000	          2.08732199	          0.00000000	          0.00000000	          0.00000000	          0.00000000	
          0.53200000	        177.30484983	        731.47878555	        -26.82840154	         -0.81018707	          0.00000000	          0.09626538	          0.00000000	          0.00000000	          0.00000000	          0.00000000	          0.00000000	          0.00000000	          0.00000000	          2.10582755	          0.00000000	          0.00000000	          0.00000000	          0.00000000	
          0.53600000	        185.21974925	        737.44443079	        -26.16455029	         -0.80979313	          0.00000000	          0.09616347	          0.00000000	          0.00000000	          0.00000000	          0.00000000	          0.00000000	          0.00000000	          0.00000000	          2.09145948	          0.00000000	          0.00000000	          0.00000000	          0.00000000	
          0.54000000	        193.12774724	        741.43333019	        -25.60529181	         -0.80940250	          0.00000000	          0.09607752	          0.00000000	          0.00000000	          0.00000000	          0.00000000	          0.00000000	          0.00000000	          0.00000000	          2.03300262	          0.00000000	          0.00000000	          0.00000000	          0.00000000	
          0.54400000	        200.98138643	        743.42811924	        -25.21561448	         -0.80901141	          0.00000000	          0.09600848	          0.00000000	          0.00000000	          0.00000000	          0.00000000	          0.00000000	          0.00000000	          0.00000000	          1.92472725	          0.00000000	          0.00000000	          0.00000000	          0.00000000	
          0.54800000	        208.71137366	        743.43579352	        -24.98260354	         -0.80861766	          0.00000000	          0.09595245	          0.00000000	          0.00000000	          0.00000000	          0.00000000	          0.00000000	          0.00000000	          0.00000000	          1.76742273	          0.00000000	          0.00000000	          0.00000000	          0.00000000	
